<svg width="166" height="183" viewBox="0 0 166 183" fill="none" xmlns="http://www.w3.org/2000/svg">
<path d="M60.8696 156.522L106.957 105.217V156.522" stroke="white"/>
<path d="M60.8696 157.391L153.043 104.348L108.696 157.391" stroke="white"/>
<path d="M60.8696 157.391V102.609L108.696 157.391" stroke="white"/>
<path d="M60.8696 157.391L13.9131 101.739L108.696 157.391" stroke="white"/>
<circle cx="108.696" cy="169.565" r="12.5435" fill="#455A64" stroke="white"/>
<circle cx="61.7392" cy="169.565" r="12.5435" fill="white" stroke="white"/>
<circle cx="106.957" cy="91.3043" r="12.5435" fill="white" stroke="white"/>
<circle cx="152.174" cy="91.3043" r="12.5435" fill="white" stroke="white"/>
<circle cx="61.7392" cy="89.5652" r="12.5435" fill="white" stroke="white"/>
<circle cx="13.0435" cy="89.5652" r="12.5435" fill="#455A64" stroke="white"/>
<circle cx="126.087" cy="13.0435" r="12.5435" fill="white" stroke="white"/>
<circle cx="82.6087" cy="13.0435" r="12.5435" fill="#455A64" stroke="white"/>
<circle cx="39.1305" cy="13.0435" r="12.5435" fill="white" stroke="white"/>
<path d="M14.7827 77.3913L40 26.0869M40 26.0869L61.7392 77.3913M40 26.0869L106.957 79.4252M40 26.0869L153.044 79.4252" stroke="white"/>
<path d="M82.6087 25.2174L14.7827 77.3913M82.6087 25.2174L61.7392 77.3913M82.6087 25.2174L106.957 79.1305M82.6087 25.2174L152.174 79.1305" stroke="white"/>
<path d="M126.087 25.2174L152.174 79.1305M126.087 25.2174L107.826 79.1305M126.087 25.2174L62.6087 76.5218M126.087 25.2174L15.6522 76.5218" stroke="white"/>
</svg>
