<svg width="116" height="302" viewBox="0 0 116 302" fill="none" xmlns="http://www.w3.org/2000/svg">
<path d="M104.686 16.3864L100.323 11.1126C99.4439 10.0767 98.1569 9.41748 96.6815 9.41748H59.0115C57.5361 9.41748 56.249 10.0767 55.4014 11.144L51.038 16.3864C50.1277 17.4851 49.594 18.8664 49.594 20.4046V59.6441C49.594 63.0972 52.3879 65.9225 55.8723 65.9225H99.8206C103.274 65.9225 106.099 63.0972 106.099 59.6441V20.4046C106.099 18.8664 105.565 17.4851 104.686 16.3864ZM77.8465 29.8221L95.1119 47.0875H84.1248V53.3658H71.5681V47.0875H60.5811L77.8465 29.8221ZM56.249 15.6958L58.8231 12.5566H96.4931L99.4125 15.6958H56.249Z" fill="white"/>
<rect x="56.7513" y="27.1224" width="40.6835" height="34.6564" fill="white"/>
<path d="M91.4077 22.602H65.0387C62.9669 22.602 61.2717 24.2971 61.2717 26.369V52.7379C61.2717 54.8098 62.9669 56.5049 65.0387 56.5049H91.4077C93.4796 56.5049 95.1747 54.8098 95.1747 52.7379V26.369C95.1747 24.2971 93.4796 22.602 91.4077 22.602ZM81.9902 48.9709H68.8057V45.2039H81.9902V48.9709ZM87.6407 41.4369H68.8057V37.6699H87.6407V41.4369ZM87.6407 33.9029H68.8057V30.136H87.6407V33.9029Z" fill="#455A64"/>
<path d="M104.686 127.89L100.323 122.616C99.4439 121.58 98.1569 120.921 96.6815 120.921H59.0115C57.5361 120.921 56.249 121.58 55.4014 122.648L51.038 127.89C50.1277 128.989 49.594 130.37 49.594 131.908V171.148C49.594 174.601 52.3879 177.426 55.8723 177.426H99.8206C103.274 177.426 106.099 174.601 106.099 171.148V131.908C106.099 130.37 105.565 128.989 104.686 127.89ZM77.8465 141.326L95.1119 158.591H84.1248V164.869H71.5681V158.591H60.5811L77.8465 141.326ZM56.249 127.199L58.8231 124.06H96.4931L99.4125 127.199H56.249Z" fill="white"/>
<rect x="56.7513" y="138.626" width="40.6835" height="34.6564" fill="white"/>
<path d="M91.4077 134.106H65.0387C62.9669 134.106 61.2717 135.801 61.2717 137.873V164.241C61.2717 166.313 62.9669 168.008 65.0387 168.008H91.4077C93.4796 168.008 95.1747 166.313 95.1747 164.241V137.873C95.1747 135.801 93.4796 134.106 91.4077 134.106ZM81.9902 160.474H68.8057V156.708H81.9902V160.474ZM87.6407 152.941H68.8057V149.174H87.6407V152.941ZM87.6407 145.407H68.8057V141.64H87.6407V145.407Z" fill="#455A64"/>
<path d="M104.686 242.406L100.323 237.133C99.4439 236.097 98.1569 235.438 96.6815 235.438H59.0115C57.5361 235.438 56.249 236.097 55.4014 237.164L51.038 242.406C50.1277 243.505 49.594 244.886 49.594 246.425V285.664C49.594 289.117 52.3879 291.942 55.8723 291.942H99.8206C103.274 291.942 106.099 289.117 106.099 285.664V246.425C106.099 244.886 105.565 243.505 104.686 242.406ZM77.8465 255.842L95.1119 273.107H84.1248V279.386H71.5681V273.107H60.5811L77.8465 255.842ZM56.249 241.716L58.8231 238.577H96.4931L99.4125 241.716H56.249Z" fill="white"/>
<rect x="56.7513" y="253.142" width="40.6835" height="34.6564" fill="white"/>
<path d="M91.4077 248.622H65.0387C62.9669 248.622 61.2717 250.317 61.2717 252.389V278.758C61.2717 280.83 62.9669 282.525 65.0387 282.525H91.4077C93.4796 282.525 95.1747 280.83 95.1747 278.758V252.389C95.1747 250.317 93.4796 248.622 91.4077 248.622ZM81.9902 274.991H68.8057V271.224H81.9902V274.991ZM87.6407 267.457H68.8057V263.69H87.6407V267.457ZM87.6407 259.923H68.8057V256.156H87.6407V259.923Z" fill="#455A64"/>
<path d="M76.8464 111.504C76.8464 112.056 77.2942 112.504 77.8464 112.504C78.3987 112.504 78.8464 112.056 78.8464 111.504H76.8464ZM77.8464 73.8336L72.0729 83.8336H83.6199L77.8464 73.8336ZM78.8464 111.504V82.8336H76.8464V111.504H78.8464Z" fill="white"/>
<path d="M34.1497 274.238L35.0676 262.728L24.6403 267.688L34.1497 274.238ZM35.056 36.5855C35.2894 36.0849 35.0728 35.4899 34.5722 35.2566C34.0717 35.0232 33.4767 35.2398 33.2434 35.7404L35.056 36.5855ZM31.1861 265.68C10.7011 221.776 1.21646 187.008 2.05053 152.009C2.88486 117 14.046 81.6518 35.056 36.5855L33.2434 35.7404C12.1882 80.9034 0.895095 116.547 0.0511024 151.962C-0.793137 187.387 8.81985 222.474 29.3737 266.526L31.1861 265.68Z" fill="white"/>
<path d="M77.8464 185.336L72.0729 195.336H83.6199L77.8464 185.336ZM78.8464 226.02V194.336H76.8464V226.02H78.8464Z" fill="white"/>
</svg>
