<?xml version="1.0" standalone="no"?>
<!DOCTYPE svg PUBLIC "-//W3C//DTD SVG 20010904//EN"
 "http://www.w3.org/TR/2001/REC-SVG-20010904/DTD/svg10.dtd">
<svg version="1.0" xmlns="http://www.w3.org/2000/svg"
 width="500.000000pt" height="500.000000pt" viewBox="0 0 500.000000 500.000000"
 preserveAspectRatio="xMidYMid meet">
<metadata>
Created by potrace 1.11, written by Peter Selinger 2001-2013
</metadata>
<g transform="translate(0.000000,500.000000) scale(0.100000,-0.100000)"
fill="#000000" stroke="none">
<path d="M520 4525 c-253 -62 -451 -269 -504 -528 -14 -67 -16 -240 -16 -1497
0 -1559 -2 -1499 60 -1636 81 -179 216 -304 402 -372 l73 -27 1965 0 1965 0
73 27 c186 68 321 193 402 372 62 137 60 77 60 1636 0 1257 -2 1430 -16 1497
-49 240 -218 431 -454 515 l-65 23 -1945 2 c-1601 1 -1955 -1 -2000 -12z
m3897 -459 c63 -30 107 -86 122 -157 15 -70 15 -2748 0 -2818 -15 -71 -59
-127 -122 -157 l-52 -24 -1865 0 -1865 0 -52 24 c-63 30 -107 86 -122 157 -15
70 -15 2748 0 2818 15 71 59 127 122 157 l52 24 1865 0 1865 0 52 -24z"/>
<path d="M1090 3629 c-96 -19 -180 -120 -180 -218 0 -99 68 -187 166 -217 70
-21 2778 -21 2848 0 67 20 114 61 142 120 32 70 31 130 -3 196 -35 65 -91 106
-162 120 -67 13 -2746 12 -2811 -1z"/>
<path d="M1078 2716 c-65 -17 -111 -56 -142 -118 -34 -69 -34 -128 0 -197 32
-64 86 -105 155 -120 70 -15 2748 -15 2818 0 102 22 181 117 181 219 0 102
-79 197 -181 219 -77 17 -2769 14 -2831 -3z"/>
<path d="M1072 1805 c-63 -19 -111 -61 -138 -119 -32 -70 -31 -130 4 -196 34
-65 90 -106 161 -120 74 -14 2728 -14 2802 0 71 14 127 55 162 120 66 126 1
274 -139 316 -68 20 -2786 20 -2852 -1z"/>
</g>
</svg>
